# xmcd CD database file
#
# Track frame offsets:
#	150
#	16116
#	32919
#	46131
#	62516
#	78694
#	99602
#	116446
#	131396
#	146137
#	158633
#
# Disc length: 2327 seconds
#
# Revision: 7
# Processed by: cddbd v1.5.2PL0 Copyright (c) Steve Scherf et al.
# Submitted via: CDex 1.82
#
DISCID=8809150b
DTITLE=Lorrie Morgan - Greatest Hits
DYEAR=1996
DGENRE=Country
TTITLE0=Five Minutes
TTITLE1=Dear Me
TTITLE2=Except For Monday
TTITLE3=A Picture Of Me (Without You)
TTITLE4=Watch Me
TTITLE5=Something In Red
TTITLE6=Back In Your Arms Again
TTITLE7=I Didn't Know My Own Strength
TTITLE8=Don't Worry Baby (with special guest The Beach Boys)
TTITLE9=What Part Of No
TTITLE10='Til A Tear Becomes A Rose (Duet With Keith Whitley)
EXTD=YEAR: 1996
EXTT0=
EXTT1=
EXTT2=
EXTT3=
EXTT4=
EXTT5=
EXTT6=
EXTT7=
EXTT8=
EXTT9=
EXTT10=
PLAYORDER=
